<mxfile host="app.diagrams.net" modified="2023-09-22T07:19:39.732Z" agent="Mozilla/5.0 (Windows NT 10.0; Win64; x64) AppleWebKit/537.36 (KHTML, like Gecko) Chrome/116.0.0.0 Safari/537.36" etag="fYXCjMcazkn5prNBZhdX" version="21.7.5" type="device" pages="4">
  <diagram id="R2lEEEUBdFMjLlhIrx00" name="Page-1">
    <mxGraphModel dx="880" dy="478" grid="0" gridSize="1" guides="1" tooltips="1" connect="1" arrows="1" fold="1" page="1" pageScale="1" pageWidth="850" pageHeight="1100" math="0" shadow="0" extFonts="Permanent Marker^https://fonts.googleapis.com/css?family=Permanent+Marker">
      <root>
        <mxCell id="0" />
        <mxCell id="1" parent="0" />
        <mxCell id="kVtf2N-Z4_4mJ3D7-yik-33" style="edgeStyle=orthogonalEdgeStyle;rounded=0;orthogonalLoop=1;jettySize=auto;html=1;exitX=0.5;exitY=1;exitDx=0;exitDy=0;entryX=0.5;entryY=0;entryDx=0;entryDy=0;endArrow=none;endFill=0;" edge="1" parent="1" source="kVtf2N-Z4_4mJ3D7-yik-1" target="kVtf2N-Z4_4mJ3D7-yik-20">
          <mxGeometry relative="1" as="geometry" />
        </mxCell>
        <mxCell id="kVtf2N-Z4_4mJ3D7-yik-35" style="edgeStyle=orthogonalEdgeStyle;rounded=0;orthogonalLoop=1;jettySize=auto;html=1;exitX=0.25;exitY=1;exitDx=0;exitDy=0;entryX=1;entryY=0;entryDx=0;entryDy=0;endArrow=none;endFill=0;" edge="1" parent="1" source="kVtf2N-Z4_4mJ3D7-yik-1" target="kVtf2N-Z4_4mJ3D7-yik-19">
          <mxGeometry relative="1" as="geometry" />
        </mxCell>
        <mxCell id="kVtf2N-Z4_4mJ3D7-yik-1" value="Hospital" style="whiteSpace=wrap;html=1;align=center;" vertex="1" parent="1">
          <mxGeometry x="132" y="88" width="100" height="40" as="geometry" />
        </mxCell>
        <mxCell id="kVtf2N-Z4_4mJ3D7-yik-2" value="consists of" style="shape=rhombus;perimeter=rhombusPerimeter;whiteSpace=wrap;html=1;align=center;" vertex="1" parent="1">
          <mxGeometry x="308" y="78" width="120" height="60" as="geometry" />
        </mxCell>
        <mxCell id="kVtf2N-Z4_4mJ3D7-yik-42" style="edgeStyle=orthogonalEdgeStyle;rounded=0;orthogonalLoop=1;jettySize=auto;html=1;exitX=1;exitY=0.25;exitDx=0;exitDy=0;entryX=0;entryY=1;entryDx=0;entryDy=0;endArrow=none;endFill=0;" edge="1" parent="1" source="kVtf2N-Z4_4mJ3D7-yik-3" target="kVtf2N-Z4_4mJ3D7-yik-23">
          <mxGeometry relative="1" as="geometry" />
        </mxCell>
        <mxCell id="kVtf2N-Z4_4mJ3D7-yik-43" style="edgeStyle=orthogonalEdgeStyle;rounded=0;orthogonalLoop=1;jettySize=auto;html=1;exitX=1;exitY=0.75;exitDx=0;exitDy=0;entryX=0;entryY=0.5;entryDx=0;entryDy=0;endArrow=none;endFill=0;" edge="1" parent="1" source="kVtf2N-Z4_4mJ3D7-yik-3" target="kVtf2N-Z4_4mJ3D7-yik-24">
          <mxGeometry relative="1" as="geometry" />
        </mxCell>
        <mxCell id="kVtf2N-Z4_4mJ3D7-yik-3" value="doctors" style="whiteSpace=wrap;html=1;align=center;" vertex="1" parent="1">
          <mxGeometry x="498" y="88" width="100" height="40" as="geometry" />
        </mxCell>
        <mxCell id="kVtf2N-Z4_4mJ3D7-yik-4" value="examine" style="shape=rhombus;perimeter=rhombusPerimeter;whiteSpace=wrap;html=1;align=center;" vertex="1" parent="1">
          <mxGeometry x="488" y="166" width="120" height="60" as="geometry" />
        </mxCell>
        <mxCell id="kVtf2N-Z4_4mJ3D7-yik-44" style="edgeStyle=orthogonalEdgeStyle;rounded=0;orthogonalLoop=1;jettySize=auto;html=1;exitX=1;exitY=0.5;exitDx=0;exitDy=0;entryX=0;entryY=0.5;entryDx=0;entryDy=0;endArrow=none;endFill=0;" edge="1" parent="1" source="kVtf2N-Z4_4mJ3D7-yik-5" target="kVtf2N-Z4_4mJ3D7-yik-28">
          <mxGeometry relative="1" as="geometry" />
        </mxCell>
        <mxCell id="kVtf2N-Z4_4mJ3D7-yik-45" style="edgeStyle=orthogonalEdgeStyle;rounded=0;orthogonalLoop=1;jettySize=auto;html=1;exitX=0.5;exitY=1;exitDx=0;exitDy=0;entryX=0.31;entryY=0;entryDx=0;entryDy=0;entryPerimeter=0;endArrow=none;endFill=0;" edge="1" parent="1" source="kVtf2N-Z4_4mJ3D7-yik-5" target="kVtf2N-Z4_4mJ3D7-yik-26">
          <mxGeometry relative="1" as="geometry" />
        </mxCell>
        <mxCell id="kVtf2N-Z4_4mJ3D7-yik-46" style="edgeStyle=orthogonalEdgeStyle;rounded=0;orthogonalLoop=1;jettySize=auto;html=1;exitX=0.25;exitY=1;exitDx=0;exitDy=0;entryX=0.29;entryY=0.075;entryDx=0;entryDy=0;entryPerimeter=0;endArrow=none;endFill=0;" edge="1" parent="1" source="kVtf2N-Z4_4mJ3D7-yik-5" target="kVtf2N-Z4_4mJ3D7-yik-25">
          <mxGeometry relative="1" as="geometry" />
        </mxCell>
        <mxCell id="ol2m8xI3INEWcM98znDm-2" value="" style="edgeStyle=orthogonalEdgeStyle;rounded=0;orthogonalLoop=1;jettySize=auto;html=1;endArrow=none;endFill=0;" edge="1" parent="1">
          <mxGeometry relative="1" as="geometry">
            <mxPoint x="598" y="274" as="sourcePoint" />
            <mxPoint x="744" y="204" as="targetPoint" />
          </mxGeometry>
        </mxCell>
        <mxCell id="kVtf2N-Z4_4mJ3D7-yik-5" value="patients" style="whiteSpace=wrap;html=1;align=center;" vertex="1" parent="1">
          <mxGeometry x="498" y="260" width="100" height="40" as="geometry" />
        </mxCell>
        <mxCell id="kVtf2N-Z4_4mJ3D7-yik-6" value="assisted by" style="shape=rhombus;perimeter=rhombusPerimeter;whiteSpace=wrap;html=1;align=center;" vertex="1" parent="1">
          <mxGeometry x="355" y="250" width="120" height="60" as="geometry" />
        </mxCell>
        <mxCell id="kVtf2N-Z4_4mJ3D7-yik-48" style="edgeStyle=orthogonalEdgeStyle;rounded=0;orthogonalLoop=1;jettySize=auto;html=1;exitX=0.25;exitY=1;exitDx=0;exitDy=0;entryX=1;entryY=0;entryDx=0;entryDy=0;endArrow=none;endFill=0;" edge="1" parent="1" source="kVtf2N-Z4_4mJ3D7-yik-7" target="kVtf2N-Z4_4mJ3D7-yik-27">
          <mxGeometry relative="1" as="geometry" />
        </mxCell>
        <mxCell id="kVtf2N-Z4_4mJ3D7-yik-7" value="Nurses" style="whiteSpace=wrap;html=1;align=center;" vertex="1" parent="1">
          <mxGeometry x="218" y="254" width="100" height="40" as="geometry" />
        </mxCell>
        <mxCell id="kVtf2N-Z4_4mJ3D7-yik-9" value="1" style="endArrow=none;html=1;rounded=0;entryX=0;entryY=0.5;entryDx=0;entryDy=0;" edge="1" parent="1" target="kVtf2N-Z4_4mJ3D7-yik-2">
          <mxGeometry relative="1" as="geometry">
            <mxPoint x="228" y="107.5" as="sourcePoint" />
            <mxPoint x="388" y="107.5" as="targetPoint" />
          </mxGeometry>
        </mxCell>
        <mxCell id="kVtf2N-Z4_4mJ3D7-yik-10" value="M" style="endArrow=none;html=1;rounded=0;entryX=0;entryY=0.5;entryDx=0;entryDy=0;" edge="1" parent="1">
          <mxGeometry relative="1" as="geometry">
            <mxPoint x="423" y="107.5" as="sourcePoint" />
            <mxPoint x="503" y="108" as="targetPoint" />
          </mxGeometry>
        </mxCell>
        <mxCell id="kVtf2N-Z4_4mJ3D7-yik-11" value="M" style="endArrow=none;html=1;rounded=0;entryX=0.5;entryY=0;entryDx=0;entryDy=0;exitX=0.5;exitY=1;exitDx=0;exitDy=0;" edge="1" parent="1" source="kVtf2N-Z4_4mJ3D7-yik-3" target="kVtf2N-Z4_4mJ3D7-yik-4">
          <mxGeometry relative="1" as="geometry">
            <mxPoint x="532" y="147" as="sourcePoint" />
            <mxPoint x="612" y="147.5" as="targetPoint" />
          </mxGeometry>
        </mxCell>
        <mxCell id="kVtf2N-Z4_4mJ3D7-yik-16" value="N" style="endArrow=none;html=1;rounded=0;entryX=0.5;entryY=0;entryDx=0;entryDy=0;" edge="1" parent="1" target="kVtf2N-Z4_4mJ3D7-yik-5">
          <mxGeometry relative="1" as="geometry">
            <mxPoint x="552" y="223" as="sourcePoint" />
            <mxPoint x="624" y="226.5" as="targetPoint" />
          </mxGeometry>
        </mxCell>
        <mxCell id="kVtf2N-Z4_4mJ3D7-yik-17" value="" style="endArrow=none;html=1;rounded=0;" edge="1" parent="1">
          <mxGeometry relative="1" as="geometry">
            <mxPoint x="468" y="279.5" as="sourcePoint" />
            <mxPoint x="504" y="280" as="targetPoint" />
          </mxGeometry>
        </mxCell>
        <mxCell id="kVtf2N-Z4_4mJ3D7-yik-18" value="" style="endArrow=none;html=1;rounded=0;" edge="1" parent="1">
          <mxGeometry relative="1" as="geometry">
            <mxPoint x="320" y="279.5" as="sourcePoint" />
            <mxPoint x="366" y="279.5" as="targetPoint" />
          </mxGeometry>
        </mxCell>
        <mxCell id="kVtf2N-Z4_4mJ3D7-yik-19" value="Hid" style="ellipse;whiteSpace=wrap;html=1;align=center;fontStyle=4;" vertex="1" parent="1">
          <mxGeometry x="37" y="159" width="100" height="40" as="geometry" />
        </mxCell>
        <mxCell id="kVtf2N-Z4_4mJ3D7-yik-20" value="Hclass" style="ellipse;whiteSpace=wrap;html=1;align=center;" vertex="1" parent="1">
          <mxGeometry x="157" y="162" width="100" height="40" as="geometry" />
        </mxCell>
        <mxCell id="kVtf2N-Z4_4mJ3D7-yik-21" value="Htype" style="ellipse;whiteSpace=wrap;html=1;align=center;" vertex="1" parent="1">
          <mxGeometry x="132" y="14" width="100" height="40" as="geometry" />
        </mxCell>
        <mxCell id="kVtf2N-Z4_4mJ3D7-yik-38" style="edgeStyle=orthogonalEdgeStyle;rounded=0;orthogonalLoop=1;jettySize=auto;html=1;exitX=0.5;exitY=1;exitDx=0;exitDy=0;entryX=0.38;entryY=0;entryDx=0;entryDy=0;entryPerimeter=0;endArrow=none;endFill=0;" edge="1" parent="1" source="kVtf2N-Z4_4mJ3D7-yik-22" target="kVtf2N-Z4_4mJ3D7-yik-3">
          <mxGeometry relative="1" as="geometry" />
        </mxCell>
        <mxCell id="kVtf2N-Z4_4mJ3D7-yik-22" value="did" style="ellipse;whiteSpace=wrap;html=1;align=center;fontStyle=4;" vertex="1" parent="1">
          <mxGeometry x="468" y="17" width="100" height="40" as="geometry" />
        </mxCell>
        <mxCell id="kVtf2N-Z4_4mJ3D7-yik-23" value="dage" style="ellipse;whiteSpace=wrap;html=1;align=center;dashed=1;" vertex="1" parent="1">
          <mxGeometry x="611" y="46" width="100" height="40" as="geometry" />
        </mxCell>
        <mxCell id="kVtf2N-Z4_4mJ3D7-yik-24" value="dname" style="ellipse;whiteSpace=wrap;html=1;align=center;" vertex="1" parent="1">
          <mxGeometry x="617" y="115" width="100" height="40" as="geometry" />
        </mxCell>
        <mxCell id="kVtf2N-Z4_4mJ3D7-yik-25" value="pid" style="ellipse;whiteSpace=wrap;html=1;align=center;fontStyle=4;" vertex="1" parent="1">
          <mxGeometry x="468" y="342" width="100" height="40" as="geometry" />
        </mxCell>
        <mxCell id="kVtf2N-Z4_4mJ3D7-yik-26" value="pname" style="ellipse;whiteSpace=wrap;html=1;align=center;" vertex="1" parent="1">
          <mxGeometry x="605" y="339" width="100" height="40" as="geometry" />
        </mxCell>
        <mxCell id="kVtf2N-Z4_4mJ3D7-yik-27" value="nid" style="ellipse;whiteSpace=wrap;html=1;align=center;fontStyle=4;" vertex="1" parent="1">
          <mxGeometry x="123" y="342" width="100" height="40" as="geometry" />
        </mxCell>
        <mxCell id="kVtf2N-Z4_4mJ3D7-yik-28" value="phone" style="ellipse;shape=doubleEllipse;margin=3;whiteSpace=wrap;html=1;align=center;" vertex="1" parent="1">
          <mxGeometry x="630" y="260" width="100" height="40" as="geometry" />
        </mxCell>
        <mxCell id="kVtf2N-Z4_4mJ3D7-yik-47" value="" style="edgeStyle=orthogonalEdgeStyle;rounded=0;orthogonalLoop=1;jettySize=auto;html=1;endArrow=none;endFill=0;" edge="1" parent="1" source="kVtf2N-Z4_4mJ3D7-yik-29" target="kVtf2N-Z4_4mJ3D7-yik-7">
          <mxGeometry relative="1" as="geometry" />
        </mxCell>
        <mxCell id="kVtf2N-Z4_4mJ3D7-yik-29" value="nclass" style="ellipse;whiteSpace=wrap;html=1;align=center;" vertex="1" parent="1">
          <mxGeometry x="246" y="346" width="100" height="40" as="geometry" />
        </mxCell>
        <mxCell id="kVtf2N-Z4_4mJ3D7-yik-30" value="" style="endArrow=none;html=1;rounded=0;entryX=0.5;entryY=0;entryDx=0;entryDy=0;exitX=0.5;exitY=1;exitDx=0;exitDy=0;" edge="1" parent="1" source="kVtf2N-Z4_4mJ3D7-yik-21" target="kVtf2N-Z4_4mJ3D7-yik-1">
          <mxGeometry relative="1" as="geometry">
            <mxPoint x="169" y="53" as="sourcePoint" />
            <mxPoint x="329" y="53" as="targetPoint" />
          </mxGeometry>
        </mxCell>
        <mxCell id="ol2m8xI3INEWcM98znDm-1" value="patients" style="whiteSpace=wrap;html=1;align=center;" vertex="1" parent="1">
          <mxGeometry x="694" y="170" width="100" height="40" as="geometry" />
        </mxCell>
      </root>
    </mxGraphModel>
  </diagram>
  <diagram id="dtTMPuw0HYwTtwTfTrjt" name="Page-2">
    <mxGraphModel dx="880" dy="478" grid="0" gridSize="1" guides="1" tooltips="1" connect="1" arrows="1" fold="1" page="1" pageScale="1" pageWidth="1100" pageHeight="1700" math="0" shadow="0">
      <root>
        <mxCell id="0" />
        <mxCell id="1" parent="0" />
        <mxCell id="M2vkiRyE2e7tDDkYGhdh-1" style="edgeStyle=orthogonalEdgeStyle;rounded=0;orthogonalLoop=1;jettySize=auto;html=1;exitX=0.5;exitY=1;exitDx=0;exitDy=0;entryX=0.5;entryY=0;entryDx=0;entryDy=0;endArrow=none;endFill=0;" edge="1" parent="1" source="M2vkiRyE2e7tDDkYGhdh-3">
          <mxGeometry relative="1" as="geometry">
            <mxPoint x="207" y="162" as="targetPoint" />
          </mxGeometry>
        </mxCell>
        <mxCell id="M2vkiRyE2e7tDDkYGhdh-2" style="edgeStyle=orthogonalEdgeStyle;rounded=0;orthogonalLoop=1;jettySize=auto;html=1;exitX=0.25;exitY=1;exitDx=0;exitDy=0;entryX=1;entryY=0;entryDx=0;entryDy=0;endArrow=none;endFill=0;" edge="1" parent="1" source="M2vkiRyE2e7tDDkYGhdh-3" target="M2vkiRyE2e7tDDkYGhdh-22">
          <mxGeometry relative="1" as="geometry" />
        </mxCell>
        <mxCell id="M2vkiRyE2e7tDDkYGhdh-3" value="Students" style="whiteSpace=wrap;html=1;align=center;" vertex="1" parent="1">
          <mxGeometry x="132" y="88" width="100" height="40" as="geometry" />
        </mxCell>
        <mxCell id="M2vkiRyE2e7tDDkYGhdh-4" value="study in" style="shape=rhombus;perimeter=rhombusPerimeter;whiteSpace=wrap;html=1;align=center;" vertex="1" parent="1">
          <mxGeometry x="308" y="78" width="120" height="60" as="geometry" />
        </mxCell>
        <mxCell id="M2vkiRyE2e7tDDkYGhdh-5" style="edgeStyle=orthogonalEdgeStyle;rounded=0;orthogonalLoop=1;jettySize=auto;html=1;exitX=1;exitY=0.25;exitDx=0;exitDy=0;entryX=0;entryY=1;entryDx=0;entryDy=0;endArrow=none;endFill=0;" edge="1" parent="1" source="M2vkiRyE2e7tDDkYGhdh-7" target="M2vkiRyE2e7tDDkYGhdh-27">
          <mxGeometry relative="1" as="geometry" />
        </mxCell>
        <mxCell id="M2vkiRyE2e7tDDkYGhdh-6" style="edgeStyle=orthogonalEdgeStyle;rounded=0;orthogonalLoop=1;jettySize=auto;html=1;exitX=1;exitY=0.75;exitDx=0;exitDy=0;entryX=0;entryY=0.5;entryDx=0;entryDy=0;endArrow=none;endFill=0;" edge="1" parent="1" source="M2vkiRyE2e7tDDkYGhdh-7" target="M2vkiRyE2e7tDDkYGhdh-28">
          <mxGeometry relative="1" as="geometry" />
        </mxCell>
        <mxCell id="M2vkiRyE2e7tDDkYGhdh-7" value="university" style="whiteSpace=wrap;html=1;align=center;" vertex="1" parent="1">
          <mxGeometry x="498" y="88" width="100" height="40" as="geometry" />
        </mxCell>
        <mxCell id="M2vkiRyE2e7tDDkYGhdh-8" value="employees" style="shape=rhombus;perimeter=rhombusPerimeter;whiteSpace=wrap;html=1;align=center;" vertex="1" parent="1">
          <mxGeometry x="488" y="166" width="120" height="60" as="geometry" />
        </mxCell>
        <mxCell id="M2vkiRyE2e7tDDkYGhdh-9" style="edgeStyle=orthogonalEdgeStyle;rounded=0;orthogonalLoop=1;jettySize=auto;html=1;exitX=1;exitY=0.5;exitDx=0;exitDy=0;entryX=0;entryY=0.5;entryDx=0;entryDy=0;endArrow=none;endFill=0;" edge="1" parent="1" source="M2vkiRyE2e7tDDkYGhdh-12" target="M2vkiRyE2e7tDDkYGhdh-32">
          <mxGeometry relative="1" as="geometry" />
        </mxCell>
        <mxCell id="M2vkiRyE2e7tDDkYGhdh-10" style="edgeStyle=orthogonalEdgeStyle;rounded=0;orthogonalLoop=1;jettySize=auto;html=1;exitX=0.5;exitY=1;exitDx=0;exitDy=0;entryX=0.31;entryY=0;entryDx=0;entryDy=0;entryPerimeter=0;endArrow=none;endFill=0;" edge="1" parent="1" source="M2vkiRyE2e7tDDkYGhdh-12" target="M2vkiRyE2e7tDDkYGhdh-30">
          <mxGeometry relative="1" as="geometry" />
        </mxCell>
        <mxCell id="M2vkiRyE2e7tDDkYGhdh-11" style="edgeStyle=orthogonalEdgeStyle;rounded=0;orthogonalLoop=1;jettySize=auto;html=1;exitX=0.25;exitY=1;exitDx=0;exitDy=0;entryX=0.29;entryY=0.075;entryDx=0;entryDy=0;entryPerimeter=0;endArrow=none;endFill=0;" edge="1" parent="1" source="M2vkiRyE2e7tDDkYGhdh-12" target="M2vkiRyE2e7tDDkYGhdh-29">
          <mxGeometry relative="1" as="geometry" />
        </mxCell>
        <mxCell id="M2vkiRyE2e7tDDkYGhdh-37" style="edgeStyle=orthogonalEdgeStyle;rounded=0;orthogonalLoop=1;jettySize=auto;html=1;exitX=0;exitY=0.5;exitDx=0;exitDy=0;entryX=1;entryY=1;entryDx=0;entryDy=0;endArrow=none;endFill=0;" edge="1" parent="1" source="M2vkiRyE2e7tDDkYGhdh-12" target="M2vkiRyE2e7tDDkYGhdh-3">
          <mxGeometry relative="1" as="geometry">
            <Array as="points">
              <mxPoint x="498" y="218" />
              <mxPoint x="330" y="218" />
              <mxPoint x="330" y="128" />
            </Array>
          </mxGeometry>
        </mxCell>
        <mxCell id="M2vkiRyE2e7tDDkYGhdh-12" value="teachers" style="whiteSpace=wrap;html=1;align=center;" vertex="1" parent="1">
          <mxGeometry x="498" y="260" width="100" height="40" as="geometry" />
        </mxCell>
        <mxCell id="M2vkiRyE2e7tDDkYGhdh-16" value="M" style="endArrow=none;html=1;rounded=0;entryX=0;entryY=0.5;entryDx=0;entryDy=0;" edge="1" parent="1" target="M2vkiRyE2e7tDDkYGhdh-4">
          <mxGeometry relative="1" as="geometry">
            <mxPoint x="228" y="107.5" as="sourcePoint" />
            <mxPoint x="388" y="107.5" as="targetPoint" />
          </mxGeometry>
        </mxCell>
        <mxCell id="M2vkiRyE2e7tDDkYGhdh-17" value="1" style="endArrow=none;html=1;rounded=0;entryX=0;entryY=0.5;entryDx=0;entryDy=0;" edge="1" parent="1">
          <mxGeometry relative="1" as="geometry">
            <mxPoint x="423" y="107.5" as="sourcePoint" />
            <mxPoint x="503" y="108" as="targetPoint" />
          </mxGeometry>
        </mxCell>
        <mxCell id="M2vkiRyE2e7tDDkYGhdh-18" value="M" style="endArrow=none;html=1;rounded=0;entryX=0.5;entryY=0;entryDx=0;entryDy=0;exitX=0.5;exitY=1;exitDx=0;exitDy=0;" edge="1" parent="1" source="M2vkiRyE2e7tDDkYGhdh-7" target="M2vkiRyE2e7tDDkYGhdh-8">
          <mxGeometry relative="1" as="geometry">
            <mxPoint x="532" y="147" as="sourcePoint" />
            <mxPoint x="612" y="147.5" as="targetPoint" />
          </mxGeometry>
        </mxCell>
        <mxCell id="M2vkiRyE2e7tDDkYGhdh-19" value="N" style="endArrow=none;html=1;rounded=0;entryX=0.5;entryY=0;entryDx=0;entryDy=0;" edge="1" parent="1" target="M2vkiRyE2e7tDDkYGhdh-12">
          <mxGeometry relative="1" as="geometry">
            <mxPoint x="552" y="223" as="sourcePoint" />
            <mxPoint x="624" y="226.5" as="targetPoint" />
          </mxGeometry>
        </mxCell>
        <mxCell id="M2vkiRyE2e7tDDkYGhdh-22" value="sid" style="ellipse;whiteSpace=wrap;html=1;align=center;fontStyle=4;" vertex="1" parent="1">
          <mxGeometry x="37" y="159" width="100" height="40" as="geometry" />
        </mxCell>
        <mxCell id="M2vkiRyE2e7tDDkYGhdh-24" value="saddress" style="ellipse;whiteSpace=wrap;html=1;align=center;" vertex="1" parent="1">
          <mxGeometry x="132" y="14" width="100" height="40" as="geometry" />
        </mxCell>
        <mxCell id="M2vkiRyE2e7tDDkYGhdh-25" style="edgeStyle=orthogonalEdgeStyle;rounded=0;orthogonalLoop=1;jettySize=auto;html=1;exitX=0.5;exitY=1;exitDx=0;exitDy=0;entryX=0.38;entryY=0;entryDx=0;entryDy=0;entryPerimeter=0;endArrow=none;endFill=0;" edge="1" parent="1" source="M2vkiRyE2e7tDDkYGhdh-26" target="M2vkiRyE2e7tDDkYGhdh-7">
          <mxGeometry relative="1" as="geometry" />
        </mxCell>
        <mxCell id="M2vkiRyE2e7tDDkYGhdh-26" value="uid" style="ellipse;whiteSpace=wrap;html=1;align=center;fontStyle=4;" vertex="1" parent="1">
          <mxGeometry x="468" y="17" width="100" height="40" as="geometry" />
        </mxCell>
        <mxCell id="M2vkiRyE2e7tDDkYGhdh-27" value="uclass" style="ellipse;whiteSpace=wrap;html=1;align=center;dashed=1;" vertex="1" parent="1">
          <mxGeometry x="611" y="46" width="100" height="40" as="geometry" />
        </mxCell>
        <mxCell id="M2vkiRyE2e7tDDkYGhdh-28" value="uname" style="ellipse;whiteSpace=wrap;html=1;align=center;" vertex="1" parent="1">
          <mxGeometry x="617" y="115" width="100" height="40" as="geometry" />
        </mxCell>
        <mxCell id="M2vkiRyE2e7tDDkYGhdh-29" value="tid" style="ellipse;whiteSpace=wrap;html=1;align=center;fontStyle=4;" vertex="1" parent="1">
          <mxGeometry x="468" y="342" width="100" height="40" as="geometry" />
        </mxCell>
        <mxCell id="M2vkiRyE2e7tDDkYGhdh-30" value="taddresss" style="ellipse;whiteSpace=wrap;html=1;align=center;" vertex="1" parent="1">
          <mxGeometry x="605" y="339" width="100" height="40" as="geometry" />
        </mxCell>
        <mxCell id="M2vkiRyE2e7tDDkYGhdh-32" value="phone" style="ellipse;shape=doubleEllipse;margin=3;whiteSpace=wrap;html=1;align=center;" vertex="1" parent="1">
          <mxGeometry x="630" y="260" width="100" height="40" as="geometry" />
        </mxCell>
        <mxCell id="M2vkiRyE2e7tDDkYGhdh-35" value="" style="endArrow=none;html=1;rounded=0;entryX=0.5;entryY=0;entryDx=0;entryDy=0;exitX=0.5;exitY=1;exitDx=0;exitDy=0;" edge="1" parent="1" source="M2vkiRyE2e7tDDkYGhdh-24" target="M2vkiRyE2e7tDDkYGhdh-3">
          <mxGeometry relative="1" as="geometry">
            <mxPoint x="169" y="53" as="sourcePoint" />
            <mxPoint x="329" y="53" as="targetPoint" />
          </mxGeometry>
        </mxCell>
        <mxCell id="M2vkiRyE2e7tDDkYGhdh-36" value="email" style="ellipse;shape=doubleEllipse;margin=3;whiteSpace=wrap;html=1;align=center;" vertex="1" parent="1">
          <mxGeometry x="157" y="161" width="100" height="40" as="geometry" />
        </mxCell>
        <mxCell id="M2vkiRyE2e7tDDkYGhdh-38" value="teaches" style="shape=rhombus;perimeter=rhombusPerimeter;whiteSpace=wrap;html=1;align=center;" vertex="1" parent="1">
          <mxGeometry x="313" y="189" width="120" height="60" as="geometry" />
        </mxCell>
        <mxCell id="M2vkiRyE2e7tDDkYGhdh-42" style="edgeStyle=orthogonalEdgeStyle;rounded=0;orthogonalLoop=1;jettySize=auto;html=1;exitX=0.5;exitY=0;exitDx=0;exitDy=0;entryX=0.32;entryY=1;entryDx=0;entryDy=0;entryPerimeter=0;endArrow=none;endFill=0;" edge="1" parent="1" source="M2vkiRyE2e7tDDkYGhdh-39" target="M2vkiRyE2e7tDDkYGhdh-30">
          <mxGeometry relative="1" as="geometry" />
        </mxCell>
        <mxCell id="M2vkiRyE2e7tDDkYGhdh-39" value="street" style="ellipse;whiteSpace=wrap;html=1;align=center;" vertex="1" parent="1">
          <mxGeometry x="577" y="415" width="64" height="30" as="geometry" />
        </mxCell>
        <mxCell id="M2vkiRyE2e7tDDkYGhdh-43" style="edgeStyle=orthogonalEdgeStyle;rounded=0;orthogonalLoop=1;jettySize=auto;html=1;exitX=0.5;exitY=0;exitDx=0;exitDy=0;entryX=0.5;entryY=1;entryDx=0;entryDy=0;endArrow=none;endFill=0;" edge="1" parent="1" source="M2vkiRyE2e7tDDkYGhdh-40" target="M2vkiRyE2e7tDDkYGhdh-30">
          <mxGeometry relative="1" as="geometry" />
        </mxCell>
        <mxCell id="M2vkiRyE2e7tDDkYGhdh-40" value="city" style="ellipse;whiteSpace=wrap;html=1;align=center;" vertex="1" parent="1">
          <mxGeometry x="651" y="418" width="64" height="30" as="geometry" />
        </mxCell>
        <mxCell id="M2vkiRyE2e7tDDkYGhdh-44" style="edgeStyle=orthogonalEdgeStyle;rounded=0;orthogonalLoop=1;jettySize=auto;html=1;exitX=0.5;exitY=0;exitDx=0;exitDy=0;entryX=1;entryY=0.5;entryDx=0;entryDy=0;endArrow=none;endFill=0;" edge="1" parent="1" source="M2vkiRyE2e7tDDkYGhdh-41" target="M2vkiRyE2e7tDDkYGhdh-30">
          <mxGeometry relative="1" as="geometry" />
        </mxCell>
        <mxCell id="M2vkiRyE2e7tDDkYGhdh-41" value="state" style="ellipse;whiteSpace=wrap;html=1;align=center;" vertex="1" parent="1">
          <mxGeometry x="730" y="415" width="64" height="30" as="geometry" />
        </mxCell>
      </root>
    </mxGraphModel>
  </diagram>
  <diagram id="4MeQuDpZQ2TVg3mPt9lm" name="Page-3">
    <mxGraphModel dx="880" dy="478" grid="0" gridSize="1" guides="1" tooltips="1" connect="1" arrows="1" fold="1" page="1" pageScale="1" pageWidth="1100" pageHeight="1700" math="0" shadow="0">
      <root>
        <mxCell id="0" />
        <mxCell id="1" parent="0" />
        <mxCell id="nI-kgmeEaDFfWcHeFWeR-1" style="edgeStyle=orthogonalEdgeStyle;rounded=0;orthogonalLoop=1;jettySize=auto;html=1;exitX=0.5;exitY=1;exitDx=0;exitDy=0;entryX=0.5;entryY=0;entryDx=0;entryDy=0;endArrow=none;endFill=0;" edge="1" parent="1" source="nI-kgmeEaDFfWcHeFWeR-3">
          <mxGeometry relative="1" as="geometry">
            <mxPoint x="207" y="162" as="targetPoint" />
          </mxGeometry>
        </mxCell>
        <mxCell id="nI-kgmeEaDFfWcHeFWeR-2" style="edgeStyle=orthogonalEdgeStyle;rounded=0;orthogonalLoop=1;jettySize=auto;html=1;exitX=0.25;exitY=1;exitDx=0;exitDy=0;entryX=1;entryY=0;entryDx=0;entryDy=0;endArrow=none;endFill=0;" edge="1" parent="1" source="nI-kgmeEaDFfWcHeFWeR-3" target="nI-kgmeEaDFfWcHeFWeR-18">
          <mxGeometry relative="1" as="geometry" />
        </mxCell>
        <mxCell id="nI-kgmeEaDFfWcHeFWeR-3" value="football stadium" style="whiteSpace=wrap;html=1;align=center;" vertex="1" parent="1">
          <mxGeometry x="132" y="88" width="100" height="40" as="geometry" />
        </mxCell>
        <mxCell id="nI-kgmeEaDFfWcHeFWeR-4" value="consists of" style="shape=rhombus;perimeter=rhombusPerimeter;whiteSpace=wrap;html=1;align=center;" vertex="1" parent="1">
          <mxGeometry x="308" y="78" width="120" height="60" as="geometry" />
        </mxCell>
        <mxCell id="nI-kgmeEaDFfWcHeFWeR-5" style="edgeStyle=orthogonalEdgeStyle;rounded=0;orthogonalLoop=1;jettySize=auto;html=1;exitX=1;exitY=0.25;exitDx=0;exitDy=0;entryX=0;entryY=1;entryDx=0;entryDy=0;endArrow=none;endFill=0;" edge="1" parent="1" source="nI-kgmeEaDFfWcHeFWeR-7" target="nI-kgmeEaDFfWcHeFWeR-22">
          <mxGeometry relative="1" as="geometry" />
        </mxCell>
        <mxCell id="nI-kgmeEaDFfWcHeFWeR-6" style="edgeStyle=orthogonalEdgeStyle;rounded=0;orthogonalLoop=1;jettySize=auto;html=1;exitX=1;exitY=0.75;exitDx=0;exitDy=0;entryX=0;entryY=0.5;entryDx=0;entryDy=0;endArrow=none;endFill=0;" edge="1" parent="1" source="nI-kgmeEaDFfWcHeFWeR-7" target="nI-kgmeEaDFfWcHeFWeR-23">
          <mxGeometry relative="1" as="geometry" />
        </mxCell>
        <mxCell id="nI-kgmeEaDFfWcHeFWeR-7" value="audience" style="whiteSpace=wrap;html=1;align=center;" vertex="1" parent="1">
          <mxGeometry x="498" y="88" width="100" height="40" as="geometry" />
        </mxCell>
        <mxCell id="nI-kgmeEaDFfWcHeFWeR-8" value="managed by" style="shape=rhombus;perimeter=rhombusPerimeter;whiteSpace=wrap;html=1;align=center;" vertex="1" parent="1">
          <mxGeometry x="488" y="166" width="120" height="60" as="geometry" />
        </mxCell>
        <mxCell id="nI-kgmeEaDFfWcHeFWeR-9" style="edgeStyle=orthogonalEdgeStyle;rounded=0;orthogonalLoop=1;jettySize=auto;html=1;exitX=1;exitY=0.5;exitDx=0;exitDy=0;entryX=0;entryY=0.5;entryDx=0;entryDy=0;endArrow=none;endFill=0;" edge="1" parent="1" source="nI-kgmeEaDFfWcHeFWeR-13" target="nI-kgmeEaDFfWcHeFWeR-26">
          <mxGeometry relative="1" as="geometry" />
        </mxCell>
        <mxCell id="nI-kgmeEaDFfWcHeFWeR-10" style="edgeStyle=orthogonalEdgeStyle;rounded=0;orthogonalLoop=1;jettySize=auto;html=1;exitX=0.5;exitY=1;exitDx=0;exitDy=0;entryX=0.31;entryY=0;entryDx=0;entryDy=0;entryPerimeter=0;endArrow=none;endFill=0;" edge="1" parent="1" source="nI-kgmeEaDFfWcHeFWeR-13" target="nI-kgmeEaDFfWcHeFWeR-25">
          <mxGeometry relative="1" as="geometry" />
        </mxCell>
        <mxCell id="nI-kgmeEaDFfWcHeFWeR-11" style="edgeStyle=orthogonalEdgeStyle;rounded=0;orthogonalLoop=1;jettySize=auto;html=1;exitX=0.25;exitY=1;exitDx=0;exitDy=0;entryX=0.29;entryY=0.075;entryDx=0;entryDy=0;entryPerimeter=0;endArrow=none;endFill=0;" edge="1" parent="1" source="nI-kgmeEaDFfWcHeFWeR-13" target="nI-kgmeEaDFfWcHeFWeR-24">
          <mxGeometry relative="1" as="geometry" />
        </mxCell>
        <mxCell id="nI-kgmeEaDFfWcHeFWeR-12" style="edgeStyle=orthogonalEdgeStyle;rounded=0;orthogonalLoop=1;jettySize=auto;html=1;exitX=0;exitY=0.5;exitDx=0;exitDy=0;entryX=1;entryY=1;entryDx=0;entryDy=0;endArrow=none;endFill=0;" edge="1" parent="1" source="nI-kgmeEaDFfWcHeFWeR-13" target="nI-kgmeEaDFfWcHeFWeR-3">
          <mxGeometry relative="1" as="geometry">
            <Array as="points">
              <mxPoint x="498" y="218" />
              <mxPoint x="330" y="218" />
              <mxPoint x="330" y="128" />
            </Array>
          </mxGeometry>
        </mxCell>
        <mxCell id="U1db4smZB3IIeo1oh2tO-1" value="1" style="edgeLabel;html=1;align=center;verticalAlign=middle;resizable=0;points=[];" vertex="1" connectable="0" parent="nI-kgmeEaDFfWcHeFWeR-12">
          <mxGeometry x="-0.8517" y="1" relative="1" as="geometry">
            <mxPoint as="offset" />
          </mxGeometry>
        </mxCell>
        <mxCell id="U1db4smZB3IIeo1oh2tO-2" value="1" style="edgeLabel;html=1;align=center;verticalAlign=middle;resizable=0;points=[];" vertex="1" connectable="0" parent="nI-kgmeEaDFfWcHeFWeR-12">
          <mxGeometry x="0.3636" relative="1" as="geometry">
            <mxPoint as="offset" />
          </mxGeometry>
        </mxCell>
        <mxCell id="nI-kgmeEaDFfWcHeFWeR-13" value="manager" style="whiteSpace=wrap;html=1;align=center;" vertex="1" parent="1">
          <mxGeometry x="498" y="260" width="100" height="40" as="geometry" />
        </mxCell>
        <mxCell id="nI-kgmeEaDFfWcHeFWeR-14" value="1" style="endArrow=none;html=1;rounded=0;entryX=0;entryY=0.5;entryDx=0;entryDy=0;" edge="1" parent="1" target="nI-kgmeEaDFfWcHeFWeR-4">
          <mxGeometry relative="1" as="geometry">
            <mxPoint x="228" y="107.5" as="sourcePoint" />
            <mxPoint x="388" y="107.5" as="targetPoint" />
          </mxGeometry>
        </mxCell>
        <mxCell id="nI-kgmeEaDFfWcHeFWeR-15" value="M" style="endArrow=none;html=1;rounded=0;entryX=0;entryY=0.5;entryDx=0;entryDy=0;" edge="1" parent="1">
          <mxGeometry relative="1" as="geometry">
            <mxPoint x="423" y="107.5" as="sourcePoint" />
            <mxPoint x="503" y="108" as="targetPoint" />
          </mxGeometry>
        </mxCell>
        <mxCell id="nI-kgmeEaDFfWcHeFWeR-16" value="M" style="endArrow=none;html=1;rounded=0;entryX=0.5;entryY=0;entryDx=0;entryDy=0;exitX=0.5;exitY=1;exitDx=0;exitDy=0;" edge="1" parent="1" source="nI-kgmeEaDFfWcHeFWeR-7" target="nI-kgmeEaDFfWcHeFWeR-8">
          <mxGeometry relative="1" as="geometry">
            <mxPoint x="532" y="147" as="sourcePoint" />
            <mxPoint x="612" y="147.5" as="targetPoint" />
          </mxGeometry>
        </mxCell>
        <mxCell id="nI-kgmeEaDFfWcHeFWeR-17" value="1" style="endArrow=none;html=1;rounded=0;entryX=0.5;entryY=0;entryDx=0;entryDy=0;" edge="1" parent="1" target="nI-kgmeEaDFfWcHeFWeR-13">
          <mxGeometry relative="1" as="geometry">
            <mxPoint x="552" y="223" as="sourcePoint" />
            <mxPoint x="624" y="226.5" as="targetPoint" />
          </mxGeometry>
        </mxCell>
        <mxCell id="nI-kgmeEaDFfWcHeFWeR-18" value="fid" style="ellipse;whiteSpace=wrap;html=1;align=center;fontStyle=4;" vertex="1" parent="1">
          <mxGeometry x="37" y="159" width="100" height="40" as="geometry" />
        </mxCell>
        <mxCell id="nI-kgmeEaDFfWcHeFWeR-19" value="fname" style="ellipse;whiteSpace=wrap;html=1;align=center;" vertex="1" parent="1">
          <mxGeometry x="132" y="14" width="100" height="40" as="geometry" />
        </mxCell>
        <mxCell id="nI-kgmeEaDFfWcHeFWeR-20" style="edgeStyle=orthogonalEdgeStyle;rounded=0;orthogonalLoop=1;jettySize=auto;html=1;exitX=0.5;exitY=1;exitDx=0;exitDy=0;entryX=0.38;entryY=0;entryDx=0;entryDy=0;entryPerimeter=0;endArrow=none;endFill=0;" edge="1" parent="1" source="nI-kgmeEaDFfWcHeFWeR-21" target="nI-kgmeEaDFfWcHeFWeR-7">
          <mxGeometry relative="1" as="geometry" />
        </mxCell>
        <mxCell id="nI-kgmeEaDFfWcHeFWeR-21" value="aid" style="ellipse;whiteSpace=wrap;html=1;align=center;fontStyle=4;" vertex="1" parent="1">
          <mxGeometry x="468" y="17" width="100" height="40" as="geometry" />
        </mxCell>
        <mxCell id="nI-kgmeEaDFfWcHeFWeR-22" value="age" style="ellipse;whiteSpace=wrap;html=1;align=center;dashed=1;" vertex="1" parent="1">
          <mxGeometry x="611" y="46" width="100" height="40" as="geometry" />
        </mxCell>
        <mxCell id="nI-kgmeEaDFfWcHeFWeR-23" value="aname" style="ellipse;whiteSpace=wrap;html=1;align=center;" vertex="1" parent="1">
          <mxGeometry x="617" y="115" width="100" height="40" as="geometry" />
        </mxCell>
        <mxCell id="nI-kgmeEaDFfWcHeFWeR-24" value="mid" style="ellipse;whiteSpace=wrap;html=1;align=center;fontStyle=4;" vertex="1" parent="1">
          <mxGeometry x="468" y="342" width="100" height="40" as="geometry" />
        </mxCell>
        <mxCell id="nI-kgmeEaDFfWcHeFWeR-25" value="maddress" style="ellipse;whiteSpace=wrap;html=1;align=center;" vertex="1" parent="1">
          <mxGeometry x="605" y="339" width="100" height="40" as="geometry" />
        </mxCell>
        <mxCell id="nI-kgmeEaDFfWcHeFWeR-26" value="phone" style="ellipse;shape=doubleEllipse;margin=3;whiteSpace=wrap;html=1;align=center;" vertex="1" parent="1">
          <mxGeometry x="630" y="260" width="100" height="40" as="geometry" />
        </mxCell>
        <mxCell id="nI-kgmeEaDFfWcHeFWeR-27" value="" style="endArrow=none;html=1;rounded=0;entryX=0.5;entryY=0;entryDx=0;entryDy=0;exitX=0.5;exitY=1;exitDx=0;exitDy=0;" edge="1" parent="1" source="nI-kgmeEaDFfWcHeFWeR-19" target="nI-kgmeEaDFfWcHeFWeR-3">
          <mxGeometry relative="1" as="geometry">
            <mxPoint x="169" y="53" as="sourcePoint" />
            <mxPoint x="329" y="53" as="targetPoint" />
          </mxGeometry>
        </mxCell>
        <mxCell id="nI-kgmeEaDFfWcHeFWeR-28" value="fkit" style="ellipse;shape=doubleEllipse;margin=3;whiteSpace=wrap;html=1;align=center;" vertex="1" parent="1">
          <mxGeometry x="157" y="161" width="100" height="40" as="geometry" />
        </mxCell>
        <mxCell id="nI-kgmeEaDFfWcHeFWeR-29" value="manages" style="shape=rhombus;perimeter=rhombusPerimeter;whiteSpace=wrap;html=1;align=center;" vertex="1" parent="1">
          <mxGeometry x="313" y="189" width="120" height="60" as="geometry" />
        </mxCell>
        <mxCell id="nI-kgmeEaDFfWcHeFWeR-30" style="edgeStyle=orthogonalEdgeStyle;rounded=0;orthogonalLoop=1;jettySize=auto;html=1;exitX=0.5;exitY=0;exitDx=0;exitDy=0;entryX=0.32;entryY=1;entryDx=0;entryDy=0;entryPerimeter=0;endArrow=none;endFill=0;" edge="1" parent="1" source="nI-kgmeEaDFfWcHeFWeR-31" target="nI-kgmeEaDFfWcHeFWeR-25">
          <mxGeometry relative="1" as="geometry" />
        </mxCell>
        <mxCell id="nI-kgmeEaDFfWcHeFWeR-31" value="tstate" style="ellipse;whiteSpace=wrap;html=1;align=center;" vertex="1" parent="1">
          <mxGeometry x="577" y="415" width="64" height="30" as="geometry" />
        </mxCell>
        <mxCell id="nI-kgmeEaDFfWcHeFWeR-32" style="edgeStyle=orthogonalEdgeStyle;rounded=0;orthogonalLoop=1;jettySize=auto;html=1;exitX=0.5;exitY=0;exitDx=0;exitDy=0;entryX=0.5;entryY=1;entryDx=0;entryDy=0;endArrow=none;endFill=0;" edge="1" parent="1" source="nI-kgmeEaDFfWcHeFWeR-33" target="nI-kgmeEaDFfWcHeFWeR-25">
          <mxGeometry relative="1" as="geometry" />
        </mxCell>
        <mxCell id="nI-kgmeEaDFfWcHeFWeR-33" value="tcity" style="ellipse;whiteSpace=wrap;html=1;align=center;" vertex="1" parent="1">
          <mxGeometry x="651" y="418" width="64" height="30" as="geometry" />
        </mxCell>
      </root>
    </mxGraphModel>
  </diagram>
  <diagram id="3_qzcKNfMQtj9NiHH9gs" name="Page-4">
    <mxGraphModel dx="880" dy="478" grid="0" gridSize="1" guides="1" tooltips="1" connect="1" arrows="1" fold="1" page="1" pageScale="1" pageWidth="1100" pageHeight="1700" math="0" shadow="0">
      <root>
        <mxCell id="0" />
        <mxCell id="1" parent="0" />
        <mxCell id="vSQOC65tL1wcEA7NlIVP-1" style="edgeStyle=orthogonalEdgeStyle;rounded=0;orthogonalLoop=1;jettySize=auto;html=1;exitX=0.5;exitY=1;exitDx=0;exitDy=0;entryX=0.5;entryY=0;entryDx=0;entryDy=0;endArrow=none;endFill=0;" edge="1" parent="1" source="vSQOC65tL1wcEA7NlIVP-3">
          <mxGeometry relative="1" as="geometry">
            <mxPoint x="207" y="162" as="targetPoint" />
          </mxGeometry>
        </mxCell>
        <mxCell id="vSQOC65tL1wcEA7NlIVP-2" style="edgeStyle=orthogonalEdgeStyle;rounded=0;orthogonalLoop=1;jettySize=auto;html=1;exitX=0.25;exitY=1;exitDx=0;exitDy=0;entryX=1;entryY=0;entryDx=0;entryDy=0;endArrow=none;endFill=0;" edge="1" parent="1" source="vSQOC65tL1wcEA7NlIVP-3" target="vSQOC65tL1wcEA7NlIVP-18">
          <mxGeometry relative="1" as="geometry" />
        </mxCell>
        <mxCell id="vSQOC65tL1wcEA7NlIVP-3" value="passengers" style="whiteSpace=wrap;html=1;align=center;" vertex="1" parent="1">
          <mxGeometry x="132" y="88" width="100" height="40" as="geometry" />
        </mxCell>
        <mxCell id="vSQOC65tL1wcEA7NlIVP-4" value="boards" style="shape=rhombus;perimeter=rhombusPerimeter;whiteSpace=wrap;html=1;align=center;" vertex="1" parent="1">
          <mxGeometry x="308" y="78" width="120" height="60" as="geometry" />
        </mxCell>
        <mxCell id="vSQOC65tL1wcEA7NlIVP-5" style="edgeStyle=orthogonalEdgeStyle;rounded=0;orthogonalLoop=1;jettySize=auto;html=1;exitX=1;exitY=0.25;exitDx=0;exitDy=0;entryX=0;entryY=1;entryDx=0;entryDy=0;endArrow=none;endFill=0;" edge="1" parent="1" source="vSQOC65tL1wcEA7NlIVP-7" target="vSQOC65tL1wcEA7NlIVP-22">
          <mxGeometry relative="1" as="geometry" />
        </mxCell>
        <mxCell id="vSQOC65tL1wcEA7NlIVP-6" style="edgeStyle=orthogonalEdgeStyle;rounded=0;orthogonalLoop=1;jettySize=auto;html=1;exitX=1;exitY=0.75;exitDx=0;exitDy=0;entryX=0;entryY=0.5;entryDx=0;entryDy=0;endArrow=none;endFill=0;" edge="1" parent="1" source="vSQOC65tL1wcEA7NlIVP-7" target="vSQOC65tL1wcEA7NlIVP-23">
          <mxGeometry relative="1" as="geometry" />
        </mxCell>
        <mxCell id="vSQOC65tL1wcEA7NlIVP-7" value="bus" style="whiteSpace=wrap;html=1;align=center;" vertex="1" parent="1">
          <mxGeometry x="498" y="88" width="100" height="40" as="geometry" />
        </mxCell>
        <mxCell id="vSQOC65tL1wcEA7NlIVP-8" value="consists of" style="shape=rhombus;perimeter=rhombusPerimeter;whiteSpace=wrap;html=1;align=center;" vertex="1" parent="1">
          <mxGeometry x="488" y="166" width="120" height="60" as="geometry" />
        </mxCell>
        <mxCell id="vSQOC65tL1wcEA7NlIVP-9" style="edgeStyle=orthogonalEdgeStyle;rounded=0;orthogonalLoop=1;jettySize=auto;html=1;exitX=1;exitY=0.5;exitDx=0;exitDy=0;entryX=0;entryY=0.5;entryDx=0;entryDy=0;endArrow=none;endFill=0;" edge="1" parent="1" source="vSQOC65tL1wcEA7NlIVP-13" target="vSQOC65tL1wcEA7NlIVP-26">
          <mxGeometry relative="1" as="geometry" />
        </mxCell>
        <mxCell id="vSQOC65tL1wcEA7NlIVP-10" style="edgeStyle=orthogonalEdgeStyle;rounded=0;orthogonalLoop=1;jettySize=auto;html=1;exitX=0.5;exitY=1;exitDx=0;exitDy=0;entryX=0.31;entryY=0;entryDx=0;entryDy=0;entryPerimeter=0;endArrow=none;endFill=0;" edge="1" parent="1" source="vSQOC65tL1wcEA7NlIVP-13" target="vSQOC65tL1wcEA7NlIVP-25">
          <mxGeometry relative="1" as="geometry" />
        </mxCell>
        <mxCell id="vSQOC65tL1wcEA7NlIVP-11" style="edgeStyle=orthogonalEdgeStyle;rounded=0;orthogonalLoop=1;jettySize=auto;html=1;exitX=0.25;exitY=1;exitDx=0;exitDy=0;entryX=0.29;entryY=0.075;entryDx=0;entryDy=0;entryPerimeter=0;endArrow=none;endFill=0;" edge="1" parent="1" source="vSQOC65tL1wcEA7NlIVP-13" target="vSQOC65tL1wcEA7NlIVP-24">
          <mxGeometry relative="1" as="geometry" />
        </mxCell>
        <mxCell id="vSQOC65tL1wcEA7NlIVP-12" style="edgeStyle=orthogonalEdgeStyle;rounded=0;orthogonalLoop=1;jettySize=auto;html=1;exitX=0;exitY=0.5;exitDx=0;exitDy=0;entryX=1;entryY=1;entryDx=0;entryDy=0;endArrow=none;endFill=0;" edge="1" parent="1" source="vSQOC65tL1wcEA7NlIVP-13" target="vSQOC65tL1wcEA7NlIVP-3">
          <mxGeometry relative="1" as="geometry">
            <Array as="points">
              <mxPoint x="498" y="218" />
              <mxPoint x="330" y="218" />
              <mxPoint x="330" y="128" />
            </Array>
          </mxGeometry>
        </mxCell>
        <mxCell id="vSQOC65tL1wcEA7NlIVP-13" value="route" style="whiteSpace=wrap;html=1;align=center;" vertex="1" parent="1">
          <mxGeometry x="498" y="260" width="100" height="40" as="geometry" />
        </mxCell>
        <mxCell id="vSQOC65tL1wcEA7NlIVP-14" value="M" style="endArrow=none;html=1;rounded=0;entryX=0;entryY=0.5;entryDx=0;entryDy=0;" edge="1" parent="1" target="vSQOC65tL1wcEA7NlIVP-4">
          <mxGeometry relative="1" as="geometry">
            <mxPoint x="228" y="107.5" as="sourcePoint" />
            <mxPoint x="388" y="107.5" as="targetPoint" />
          </mxGeometry>
        </mxCell>
        <mxCell id="vSQOC65tL1wcEA7NlIVP-15" value="1" style="endArrow=none;html=1;rounded=0;entryX=0;entryY=0.5;entryDx=0;entryDy=0;" edge="1" parent="1">
          <mxGeometry relative="1" as="geometry">
            <mxPoint x="423" y="107.5" as="sourcePoint" />
            <mxPoint x="503" y="108" as="targetPoint" />
          </mxGeometry>
        </mxCell>
        <mxCell id="vSQOC65tL1wcEA7NlIVP-16" value="M" style="endArrow=none;html=1;rounded=0;entryX=0.5;entryY=0;entryDx=0;entryDy=0;exitX=0.5;exitY=1;exitDx=0;exitDy=0;" edge="1" parent="1" source="vSQOC65tL1wcEA7NlIVP-7" target="vSQOC65tL1wcEA7NlIVP-8">
          <mxGeometry relative="1" as="geometry">
            <mxPoint x="532" y="147" as="sourcePoint" />
            <mxPoint x="612" y="147.5" as="targetPoint" />
          </mxGeometry>
        </mxCell>
        <mxCell id="vSQOC65tL1wcEA7NlIVP-17" value="N" style="endArrow=none;html=1;rounded=0;entryX=0.5;entryY=0;entryDx=0;entryDy=0;" edge="1" parent="1" target="vSQOC65tL1wcEA7NlIVP-13">
          <mxGeometry relative="1" as="geometry">
            <mxPoint x="552" y="223" as="sourcePoint" />
            <mxPoint x="624" y="226.5" as="targetPoint" />
          </mxGeometry>
        </mxCell>
        <mxCell id="vSQOC65tL1wcEA7NlIVP-18" value="pid" style="ellipse;whiteSpace=wrap;html=1;align=center;fontStyle=4;" vertex="1" parent="1">
          <mxGeometry x="37" y="159" width="100" height="40" as="geometry" />
        </mxCell>
        <mxCell id="vSQOC65tL1wcEA7NlIVP-19" value="paddress" style="ellipse;whiteSpace=wrap;html=1;align=center;" vertex="1" parent="1">
          <mxGeometry x="132" y="14" width="100" height="40" as="geometry" />
        </mxCell>
        <mxCell id="vSQOC65tL1wcEA7NlIVP-20" style="edgeStyle=orthogonalEdgeStyle;rounded=0;orthogonalLoop=1;jettySize=auto;html=1;exitX=0.5;exitY=1;exitDx=0;exitDy=0;entryX=0.38;entryY=0;entryDx=0;entryDy=0;entryPerimeter=0;endArrow=none;endFill=0;" edge="1" parent="1" source="vSQOC65tL1wcEA7NlIVP-21" target="vSQOC65tL1wcEA7NlIVP-7">
          <mxGeometry relative="1" as="geometry" />
        </mxCell>
        <mxCell id="vSQOC65tL1wcEA7NlIVP-21" value="bid" style="ellipse;whiteSpace=wrap;html=1;align=center;fontStyle=4;" vertex="1" parent="1">
          <mxGeometry x="468" y="17" width="100" height="40" as="geometry" />
        </mxCell>
        <mxCell id="vSQOC65tL1wcEA7NlIVP-22" value="bseatno" style="ellipse;whiteSpace=wrap;html=1;align=center;dashed=1;" vertex="1" parent="1">
          <mxGeometry x="611" y="46" width="100" height="40" as="geometry" />
        </mxCell>
        <mxCell id="vSQOC65tL1wcEA7NlIVP-23" value="destination" style="ellipse;whiteSpace=wrap;html=1;align=center;" vertex="1" parent="1">
          <mxGeometry x="617" y="115" width="100" height="40" as="geometry" />
        </mxCell>
        <mxCell id="vSQOC65tL1wcEA7NlIVP-24" value="rid" style="ellipse;whiteSpace=wrap;html=1;align=center;fontStyle=4;" vertex="1" parent="1">
          <mxGeometry x="468" y="342" width="100" height="40" as="geometry" />
        </mxCell>
        <mxCell id="vSQOC65tL1wcEA7NlIVP-25" value="rdestination" style="ellipse;whiteSpace=wrap;html=1;align=center;" vertex="1" parent="1">
          <mxGeometry x="605" y="339" width="100" height="40" as="geometry" />
        </mxCell>
        <mxCell id="vSQOC65tL1wcEA7NlIVP-26" value="rstop" style="ellipse;shape=doubleEllipse;margin=3;whiteSpace=wrap;html=1;align=center;" vertex="1" parent="1">
          <mxGeometry x="630" y="260" width="100" height="40" as="geometry" />
        </mxCell>
        <mxCell id="vSQOC65tL1wcEA7NlIVP-27" value="" style="endArrow=none;html=1;rounded=0;entryX=0.5;entryY=0;entryDx=0;entryDy=0;exitX=0.5;exitY=1;exitDx=0;exitDy=0;" edge="1" parent="1" source="vSQOC65tL1wcEA7NlIVP-19" target="vSQOC65tL1wcEA7NlIVP-3">
          <mxGeometry relative="1" as="geometry">
            <mxPoint x="169" y="53" as="sourcePoint" />
            <mxPoint x="329" y="53" as="targetPoint" />
          </mxGeometry>
        </mxCell>
        <mxCell id="vSQOC65tL1wcEA7NlIVP-28" value="email" style="ellipse;shape=doubleEllipse;margin=3;whiteSpace=wrap;html=1;align=center;" vertex="1" parent="1">
          <mxGeometry x="157" y="161" width="100" height="40" as="geometry" />
        </mxCell>
        <mxCell id="vSQOC65tL1wcEA7NlIVP-29" value="travels through" style="shape=rhombus;perimeter=rhombusPerimeter;whiteSpace=wrap;html=1;align=center;" vertex="1" parent="1">
          <mxGeometry x="313" y="189" width="120" height="60" as="geometry" />
        </mxCell>
        <mxCell id="vSQOC65tL1wcEA7NlIVP-30" style="edgeStyle=orthogonalEdgeStyle;rounded=0;orthogonalLoop=1;jettySize=auto;html=1;exitX=0.5;exitY=0;exitDx=0;exitDy=0;entryX=0.32;entryY=1;entryDx=0;entryDy=0;entryPerimeter=0;endArrow=none;endFill=0;" edge="1" parent="1" source="vSQOC65tL1wcEA7NlIVP-31" target="vSQOC65tL1wcEA7NlIVP-25">
          <mxGeometry relative="1" as="geometry" />
        </mxCell>
        <mxCell id="vSQOC65tL1wcEA7NlIVP-31" value="city" style="ellipse;whiteSpace=wrap;html=1;align=center;" vertex="1" parent="1">
          <mxGeometry x="577" y="415" width="64" height="30" as="geometry" />
        </mxCell>
        <mxCell id="vSQOC65tL1wcEA7NlIVP-32" style="edgeStyle=orthogonalEdgeStyle;rounded=0;orthogonalLoop=1;jettySize=auto;html=1;exitX=0.5;exitY=0;exitDx=0;exitDy=0;entryX=0.5;entryY=1;entryDx=0;entryDy=0;endArrow=none;endFill=0;" edge="1" parent="1" source="vSQOC65tL1wcEA7NlIVP-33" target="vSQOC65tL1wcEA7NlIVP-25">
          <mxGeometry relative="1" as="geometry" />
        </mxCell>
        <mxCell id="vSQOC65tL1wcEA7NlIVP-33" value="street" style="ellipse;whiteSpace=wrap;html=1;align=center;" vertex="1" parent="1">
          <mxGeometry x="651" y="418" width="64" height="30" as="geometry" />
        </mxCell>
        <mxCell id="vSQOC65tL1wcEA7NlIVP-34" style="edgeStyle=orthogonalEdgeStyle;rounded=0;orthogonalLoop=1;jettySize=auto;html=1;exitX=0.5;exitY=0;exitDx=0;exitDy=0;entryX=1;entryY=0.5;entryDx=0;entryDy=0;endArrow=none;endFill=0;" edge="1" parent="1" target="vSQOC65tL1wcEA7NlIVP-25">
          <mxGeometry relative="1" as="geometry">
            <mxPoint x="762" y="415" as="sourcePoint" />
          </mxGeometry>
        </mxCell>
        <mxCell id="vSQOC65tL1wcEA7NlIVP-36" style="edgeStyle=orthogonalEdgeStyle;rounded=0;orthogonalLoop=1;jettySize=auto;html=1;exitX=0.5;exitY=0;exitDx=0;exitDy=0;entryX=0.82;entryY=0.975;entryDx=0;entryDy=0;entryPerimeter=0;endArrow=none;endFill=0;" edge="1" parent="1">
          <mxGeometry relative="1" as="geometry">
            <mxPoint x="280" y="309.5" as="sourcePoint" />
            <mxPoint x="218" y="128.5" as="targetPoint" />
            <Array as="points">
              <mxPoint x="280" y="205" />
              <mxPoint x="278" y="205" />
              <mxPoint x="278" y="146" />
              <mxPoint x="218" y="146" />
            </Array>
          </mxGeometry>
        </mxCell>
        <mxCell id="vSQOC65tL1wcEA7NlIVP-39" style="edgeStyle=orthogonalEdgeStyle;rounded=0;orthogonalLoop=1;jettySize=auto;html=1;exitX=0.5;exitY=1;exitDx=0;exitDy=0;endArrow=none;endFill=0;" edge="1" parent="1" source="vSQOC65tL1wcEA7NlIVP-35" target="vSQOC65tL1wcEA7NlIVP-38">
          <mxGeometry relative="1" as="geometry" />
        </mxCell>
        <mxCell id="vSQOC65tL1wcEA7NlIVP-35" value="buys" style="shape=rhombus;perimeter=rhombusPerimeter;whiteSpace=wrap;html=1;align=center;" vertex="1" parent="1">
          <mxGeometry x="216" y="308" width="120" height="60" as="geometry" />
        </mxCell>
        <mxCell id="vSQOC65tL1wcEA7NlIVP-44" style="edgeStyle=orthogonalEdgeStyle;rounded=0;orthogonalLoop=1;jettySize=auto;html=1;exitX=1;exitY=0.5;exitDx=0;exitDy=0;entryX=0.02;entryY=0.825;entryDx=0;entryDy=0;entryPerimeter=0;endArrow=none;endFill=0;" edge="1" parent="1" source="vSQOC65tL1wcEA7NlIVP-38" target="vSQOC65tL1wcEA7NlIVP-42">
          <mxGeometry relative="1" as="geometry">
            <Array as="points">
              <mxPoint x="322" y="415" />
              <mxPoint x="338" y="415" />
            </Array>
          </mxGeometry>
        </mxCell>
        <mxCell id="vSQOC65tL1wcEA7NlIVP-45" style="edgeStyle=orthogonalEdgeStyle;rounded=0;orthogonalLoop=1;jettySize=auto;html=1;exitX=0.5;exitY=1;exitDx=0;exitDy=0;entryX=0;entryY=0.5;entryDx=0;entryDy=0;endArrow=none;endFill=0;" edge="1" parent="1" source="vSQOC65tL1wcEA7NlIVP-38" target="vSQOC65tL1wcEA7NlIVP-41">
          <mxGeometry relative="1" as="geometry" />
        </mxCell>
        <mxCell id="vSQOC65tL1wcEA7NlIVP-38" value="ticket" style="whiteSpace=wrap;html=1;align=center;" vertex="1" parent="1">
          <mxGeometry x="222" y="403" width="100" height="40" as="geometry" />
        </mxCell>
        <mxCell id="vSQOC65tL1wcEA7NlIVP-43" style="edgeStyle=orthogonalEdgeStyle;rounded=0;orthogonalLoop=1;jettySize=auto;html=1;exitX=0.5;exitY=0;exitDx=0;exitDy=0;entryX=0;entryY=0.5;entryDx=0;entryDy=0;endArrow=none;endFill=0;" edge="1" parent="1" source="vSQOC65tL1wcEA7NlIVP-40" target="vSQOC65tL1wcEA7NlIVP-38">
          <mxGeometry relative="1" as="geometry" />
        </mxCell>
        <mxCell id="vSQOC65tL1wcEA7NlIVP-40" value="tid" style="ellipse;whiteSpace=wrap;html=1;align=center;fontStyle=4;" vertex="1" parent="1">
          <mxGeometry x="75" y="448" width="100" height="40" as="geometry" />
        </mxCell>
        <mxCell id="vSQOC65tL1wcEA7NlIVP-41" value="tprice" style="ellipse;whiteSpace=wrap;html=1;align=center;" vertex="1" parent="1">
          <mxGeometry x="342" y="463" width="100" height="40" as="geometry" />
        </mxCell>
        <mxCell id="vSQOC65tL1wcEA7NlIVP-42" value="tdestination" style="ellipse;whiteSpace=wrap;html=1;align=center;" vertex="1" parent="1">
          <mxGeometry x="336" y="386" width="100" height="40" as="geometry" />
        </mxCell>
      </root>
    </mxGraphModel>
  </diagram>
</mxfile>
